<svg xmlns="http://www.w3.org/2000/svg" width="50" height="51" viewBox="0 0 50 51">
  <path fill="#000000" fill-rule="evenodd" d="M44.0569,21.2708 L28.7709,5.9848 C30.5439,4.7618 32.6889,4.0418 34.9999,4.0418 C41.0659,4.0418 45.9999,8.9768 45.9999,15.0418 C45.9999,17.3538 45.2799,19.4978 44.0569,21.2708 L44.0569,21.2708 Z M23.9999,15.0418 C23.9999,12.7308 24.7199,10.5858 25.9429,8.8128 L41.2289,24.0988 C39.4559,25.3218 37.3119,26.0418 34.9999,26.0418 C28.9349,26.0418 23.9999,21.1078 23.9999,15.0418 L23.9999,15.0418 Z M13.8889,41.3958 L8.7169,36.2238 L21.2159,20.9478 C22.7479,24.5108 25.6199,27.3658 29.1959,28.8718 L13.8889,41.3958 Z M34.9999,0.0418 C26.7289,0.0418 19.9999,6.7708 19.9999,15.0418 C19.9999,15.3838 20.0289,15.7178 20.0509,16.0548 L0.3569,40.1258 L9.9869,49.7578 L22.9999,39.1098 L22.9999,50.0418 L26.9999,50.0418 L26.9999,35.8368 L34.1359,29.9978 C34.4239,30.0148 34.7089,30.0418 34.9999,30.0418 C43.2709,30.0418 49.9999,23.3128 49.9999,15.0418 C49.9999,6.7708 43.2709,0.0418 34.9999,0.0418 L34.9999,0.0418 Z"/>
</svg>
