<svg xmlns="http://www.w3.org/2000/svg" width="50" height="51" viewBox="0 0 50 51">
  <path fill="#000000" fill-rule="evenodd" d="M25,37.042 C18.373,37.042 13,31.669 13,25.042 C13,18.414 18.373,13.042 25,13.042 C31.627,13.042 37,18.414 37,25.042 C37,31.669 31.627,37.042 25,37.042 M25,0.042 C11.193,0.042 0,11.235 0,25.042 C0,38.849 11.193,50.042 25,50.042 C38.807,50.042 50,38.849 50,25.042 C50,11.235 38.807,0.042 25,0.042 M25,29.042 C22.791,29.042 21,27.251 21,25.042 C21,22.833 22.791,21.042 25,21.042 C27.209,21.042 29,22.833 29,25.042 C29,27.251 27.209,29.042 25,29.042 M25,17.042 C20.582,17.042 17,20.624 17,25.042 C17,29.46 20.582,33.042 25,33.042 C29.418,33.042 33,29.46 33,25.042 C33,20.624 29.418,17.042 25,17.042"/>
</svg>
