<svg xmlns="http://www.w3.org/2000/svg" width="50" height="51" viewBox="0 0 50 51">
  <path fill="#000000" fill-rule="evenodd" d="M43.7729,8.0752 C40.9539,5.2112 40.9999,0.1292 40.9999,0.0782 L40.9999,0.0422 L39.0009,0.0422 L37.0009,0.0002 L37.0009,0.0422 L36.9999,0.0422 L36.9999,0.1162 L36.9999,0.1282 L36.9999,33.0422 L29.4999,33.0422 C24.8059,33.0422 20.9999,36.8472 20.9999,41.5422 C20.9999,46.2362 24.8059,50.0422 29.4999,50.0422 L32.4999,50.0422 C37.1939,50.0422 40.9999,46.2362 40.9999,41.5422 L40.9999,35.0422 L40.9999,33.0422 L40.9999,10.9512 C43.0559,12.9982 45.7439,14.0422 49.0009,14.0422 L49.9999,14.0422 L49.9999,10.0422 L49.0009,10.0422 C46.7859,10.0422 45.0759,9.3982 43.7729,8.0752 L43.7729,8.0752 Z M-0.0001,37.0422 L14.9999,37.0422 L14.9999,33.0422 L-0.0001,33.0422 L-0.0001,37.0422 Z M-0.0001,27.0422 L28.9999,27.0422 L28.9999,23.0422 L-0.0001,23.0422 L-0.0001,27.0422 Z M-0.0001,17.0422 L28.9999,17.0422 L28.9999,13.0422 L-0.0001,13.0422 L-0.0001,17.0422 Z"/>
</svg>
