<svg xmlns="http://www.w3.org/2000/svg" viewBox="0 0 162.47 132.84"><defs><style>.cls-1{fill:#394e60;}</style></defs><title>Alert</title><g id="Layer_2" data-name="Layer 2"><g id="Layer_1-2" data-name="Layer 1"><path class="cls-1" d="M89.69,4.66l71.22,112.84a10,10,0,0,1-8.46,15.34H10a10,10,0,0,1-8.46-15.34L72.78,4.66A10,10,0,0,1,89.69,4.66Zm-11,13-62.54,99.1a3,3,0,0,0,2.54,4.6H143.78a3,3,0,0,0,2.54-4.6L83.77,17.69A3,3,0,0,0,78.7,17.69Zm2.54,78A8.31,8.31,0,1,0,89.54,104,8.31,8.31,0,0,0,81.23,95.69Zm6.26-9.38V41.77a4.72,4.72,0,0,0-4.71-4.71h-3.1A4.72,4.72,0,0,0,75,41.77V86.31A4.72,4.72,0,0,0,79.69,91h3.1A4.72,4.72,0,0,0,87.49,86.31Z"/></g></g></svg>