<svg xmlns="http://www.w3.org/2000/svg" width="42" height="50" viewBox="0 0 42 50">
  <path fill="#000000" fill-rule="evenodd" d="M20,17.952 L20,21.042 L24.813,16.675 C24.954,16.558 25.089,16.434 25.22,16.306 L25.242,16.285 C26.328,15.199 27,13.699 27,12.042 C27,8.728 24.314,6.042 21,6.042 C17.686,6.042 15,8.728 15,12.042 C15,15.014 17.163,17.475 20,17.952 M21,35.042 C14.373,35.042 9,29.669 9,23.042 L9,12.042 C9,5.415 14.373,0.042 21,0.042 C27.627,0.042 33,5.415 33,12.042 L33,23.042 C33,29.669 27.627,35.042 21,35.042 M38,23.042 L42,23.042 C42,33.946 33.644,42.929 23,43.941 L23,49.042 L19,49.042 L19,43.941 C8.356,42.929 0,33.946 0,23.042 L4,23.042 C4,32.416 11.626,40.042 21,40.042 C30.374,40.042 38,32.416 38,23.042"/>
</svg>
