<svg xmlns="http://www.w3.org/2000/svg" width="50" height="51" viewBox="0 0 50 51">
  <path fill="#000000" fill-rule="evenodd" d="M43,7.042 L50,7.042 L50,11.042 L43,11.042 L43,18.042 L39,18.042 L39,11.042 L32,11.042 L32,7.042 L39,7.042 L39,0.042 L43,0.042 L43,7.042 Z M14,25.042 L29,25.042 L29,21.042 L14,21.042 L14,25.042 Z M10,38.042 L6,38.042 C2.686,38.042 0,40.728 0,44.042 C0,47.356 2.686,50.042 6,50.042 L8.833,50.042 C11.687,50.042 14,47.729 14,44.875 L14,44.042 L14,38.042 L14,29.042 L29,29.042 L29,38.042 L25,38.042 C21.686,38.042 19,40.728 19,44.042 C19,47.356 21.686,50.042 25,50.042 L27.833,50.042 C30.63,50.042 32.893,47.816 32.983,45.042 L33,45.042 L33,44.875 L33,38.042 L33,17.042 L10,17.042 L10,38.042 Z"/>
</svg>
