<?xml version="1.0" standalone="no"?>
<!DOCTYPE svg PUBLIC "-//W3C//DTD SVG 20010904//EN"
 "http://www.w3.org/TR/2001/REC-SVG-20010904/DTD/svg10.dtd">
<svg version="1.0" xmlns="http://www.w3.org/2000/svg"
 width="200.000000pt" height="200.000000pt" viewBox="0 0 200.000000 200.000000"
 preserveAspectRatio="xMidYMid meet">

<g transform="translate(0.000000,200.000000) scale(0.100000,-0.100000)"
fill="#000000" stroke="none">
<path d="M905 1934 c-243 -37 -409 -117 -565 -274 -185 -184 -273 -397 -273
-660 0 -260 87 -474 268 -656 183 -186 402 -277 665 -277 260 0 479 90 661
272 182 182 272 401 272 661 0 263 -91 482 -277 665 -129 128 -287 214 -457
250 -76 16 -241 27 -294 19z m345 -163 c133 -45 220 -99 321 -200 100 -100
155 -187 201 -321 31 -91 33 -101 33 -250 0 -149 -2 -159 -33 -250 -46 -134
-101 -221 -201 -321 -100 -100 -187 -155 -321 -201 -91 -31 -101 -33 -250 -33
-149 0 -159 2 -250 33 -134 46 -221 101 -321 201 -100 100 -155 187 -201 321
-31 91 -33 101 -33 250 0 149 2 159 33 250 43 124 98 215 185 306 84 89 182
156 285 197 123 47 183 57 327 53 115 -3 141 -7 225 -35z"/>
<path d="M1390 1342 c-8 -2 -135 -124 -282 -270 l-268 -267 -108 108 c-113
113 -141 127 -175 89 -36 -40 -23 -61 121 -205 103 -103 144 -137 162 -137 38
0 623 586 623 624 0 42 -35 70 -73 58z"/>
</g>
</svg>
