<?xml version="1.0" standalone="no"?>
<!DOCTYPE svg PUBLIC "-//W3C//DTD SVG 20010904//EN"
 "http://www.w3.org/TR/2001/REC-SVG-20010904/DTD/svg10.dtd">
<svg version="1.0" xmlns="http://www.w3.org/2000/svg"
 width="200.000000pt" height="200.000000pt" viewBox="0 0 200.000000 200.000000"
 preserveAspectRatio="xMidYMid meet">

<g transform="translate(0.000000,200.000000) scale(0.100000,-0.100000)"
fill="#000000" stroke="none">
<path d="M835 1724 c-38 -8 -116 -37 -173 -65 -87 -42 -115 -62 -185 -132 -45
-45 -97 -108 -116 -139 -76 -131 -110 -258 -76 -291 41 -42 85 -8 114 88 46
156 171 301 323 374 100 47 161 61 276 61 105 0 182 -18 281 -66 87 -43 200
-146 248 -226 56 -93 57 -92 -53 -52 -98 35 -98 35 -123 16 -32 -24 -37 -53
-14 -79 18 -21 293 -123 330 -123 11 0 26 6 35 13 17 13 118 300 118 333 0 26
-30 54 -57 54 -29 0 -50 -29 -74 -99 -12 -34 -23 -61 -24 -59 -2 2 -26 38 -54
80 -167 250 -477 374 -776 312z"/>
<path d="M1646 907 c-9 -7 -29 -49 -44 -93 -37 -110 -84 -184 -168 -264 -120
-114 -261 -170 -429 -170 -108 0 -184 18 -284 66 -87 43 -200 146 -248 226
-56 93 -56 93 38 58 96 -35 129 -37 152 -12 46 50 10 80 -165 141 -156 54
-175 58 -200 39 -17 -14 -118 -301 -118 -334 0 -26 30 -54 57 -54 29 0 50 29
74 99 12 34 23 61 24 59 2 -2 26 -38 54 -80 136 -203 369 -327 614 -328 220 0
443 105 578 274 80 98 149 248 149 322 0 54 -43 81 -84 51z"/>
</g>
</svg>
