<?xml version="1.0" encoding="utf-8"?>
<!-- Generator: Adobe Illustrator 22.0.1, SVG Export Plug-In . SVG Version: 6.00 Build 0)  -->
<svg version="1.1" id="Layer_1" xmlns="http://www.w3.org/2000/svg" xmlns:xlink="http://www.w3.org/1999/xlink" x="0px" y="0px"
	 viewBox="7 7 36 36" style="enable-background:new 0 0 50 50;" xml:space="preserve">
<style type="text/css">
	.st0_07{fill:none;stroke:#000000;stroke-width:2;stroke-miterlimit:10;}
</style>
<path class="st0_07" d="M17,23c0-1.7,1.3-3,3-3s3,1.3,3,3s-1.3,3-3,3c1.7,0,3,1.3,3,3s-1.3,3-3,3s-3-1.3-3-3"/>
<path class="st0_07" d="M33,29c0,1.7-1.3,3-3,3s-3-1.3-3-3v-6c0-1.7,1.3-3,3-3s3,1.3,3,3V29z"/>
<path class="st0_07" d="M13.2,37.8c-5.8-6.3-5.6-16,0.5-22.1c6.2-6.2,16.4-6.2,22.6,0s6.2,16.4,0,22.6"/>
<polyline class="st0_07" points="10,38 14,38 14,34 "/>
</svg>
