<?xml version="1.0" encoding="utf-8"?>
<!-- Generator: Adobe Illustrator 22.0.1, SVG Export Plug-In . SVG Version: 6.00 Build 0)  -->
<svg version="1.1" id="Layer_1" xmlns="http://www.w3.org/2000/svg" xmlns:xlink="http://www.w3.org/1999/xlink" x="0px" y="0px"
	 viewBox="7 7 36 36" style="enable-background:new 0 0 50 50;" xml:space="preserve">
<style type="text/css">
	.st0_20{fill:none;stroke:#000000;stroke-width:2;stroke-miterlimit:10;}
</style>
<polygon class="st0_20 svg-stroke" points="41,35 9,35 9,15 41,15 "/>
<path class="st0_20 svg-stroke" d="M13,26h3c1.7,0,3-1.3,3-3s-1.3-3-3-3h-3v11"/>
<line class="st0_20 svg-stroke" x1="16" y1="26" x2="19" y2="31"/>
<polyline class="st0_20 svg-stroke" points="29,20 23,20 23,30 29,30 "/>
<path class="st0_20 svg-stroke" d="M37,23L37,23c0-1.7-1.3-3-3-3h0c-1.7,0-3,1.3-3,3v4c0,1.7,1.3,3,3,3h0c1.7,0,3-1.3,3-3v0"/>
<line class="st0_20 svg-stroke" x1="23" y1="25" x2="27" y2="25"/>
</svg>
