<?xml version="1.0" encoding="utf-8"?>
<!-- Generator: Adobe Illustrator 22.0.1, SVG Export Plug-In . SVG Version: 6.00 Build 0)  -->
<svg version="1.1" id="Layer_1" xmlns="http://www.w3.org/2000/svg" xmlns:xlink="http://www.w3.org/1999/xlink" x="0px" y="0px"
	 viewBox="4 4 43 43" style="enable-background:new 0 0 50 50;" xml:space="preserve">
<style type="text/css">
	.st0_2A{fill:none;stroke:#000000;stroke-width:2;stroke-miterlimit:10;}
</style>
<polygon class="st0_2A svg-stroke" points="42,26 42,35 19,35 19,26 23,21 38,21 "/>
<rect x="19" y="35" class="st0_2A svg-stroke" width="4" height="4"/>
<rect x="38" y="35" class="st0_2A svg-stroke" width="4" height="4"/>
<line class="st0_2A svg-stroke" x1="24" y1="25" x2="37" y2="25"/>
<line class="st0_2A svg-stroke" x1="14" y1="16" x2="27" y2="16"/>
<line class="st0_2A svg-stroke" x1="19" y1="26" x2="16" y2="26"/>
<polyline class="st0_2A svg-stroke" points="13,26 9,26 9,17 13,12 28,12 32,17 32,17.9 "/>
<rect x="9" y="26" class="st0_2A svg-stroke" width="4" height="4"/>
<line class="st0_2A svg-stroke" x1="9" y1="17" x2="6" y2="17"/>
<line class="st0_2A svg-stroke" x1="45" y1="26" x2="42" y2="26"/>
</svg>
