<svg id="Layer_1" data-name="Layer 1" xmlns="http://www.w3.org/2000/svg" viewBox="0 0 512 512">
    <g>
        <path d="M391.63,135.49c-7.89,0-17.61,3.18-26.18,6-1.72.57-3.4,1.12-5,1.61-20.88-54.33-67.06-89.18-118.8-89.18A132.93,132.93,0,0,0,109.31,174.21c-2.89-.27-5.53-.39-8.08-.39a101.22,101.22,0,1,0,0,202.43h69.3l-10.55-14a14.65,14.65,0,0,1-1.52-2.46,31.24,31.24,0,0,1-2.92-9.31l-.61-4.31H101.24a71.1,71.1,0,1,1,9.41-141.46l26.88,3.55L139,181.15A102.79,102.79,0,0,1,241.67,84c48.81,0,80.09,39.61,92,73.53l7.67,21.78,22.35-5.84c3.49-.92,7.2-2.12,11.12-3.39,4.45-1.46,13.7-4.49,16.78-4.49a90.26,90.26,0,0,1,0,180.52H357l-.49,4.47a28.24,28.24,0,0,1-1,5.3,14.74,14.74,0,0,1-2.23,4.54l-11.35,15.81h49.76a120.38,120.38,0,0,0,0-240.75Z" fill="#ffffff"/>
        <path d="M333.41,340H286.87V293.53H225.16V340H179.89s-12.69-.2-8.58,11.18a19,19,0,0,0,.7,2l13.61,18.07,60.16,80s11.37,16,24.07-.53l57.08-79.42L341,351.64c.06-.19,0-.31.08-.49C344.08,339.81,333.41,340,333.41,340Z" fill="#ffffff"/>
        <polygon points="286.73 273.44 286.73 255.32 286.73 248.79 224.55 248.79 224.55 255.32 224.55 273.51 224.55 276.95 286.73 276.95 286.73 273.44" fill="#ffffff"/>
        <polygon points="286.73 228.72 286.73 207.13 224.55 207.13 224.55 228.72 224.55 235.25 286.73 235.25 286.73 228.72" fill="#ffffff"/>
    </g>
</svg>