<svg id="Layer_1" data-name="Layer 1" xmlns="http://www.w3.org/2000/svg" viewBox="0 0 512 512">
    <g>
        <path d="M391.65,142.37c-7.88,0-17.59,3.18-26.18,6-1.73.56-3.39,1.11-5,1.61-20.88-54.34-67.06-89.19-118.8-89.19A133,133,0,0,0,109.33,181.09c-2.9-.26-5.53-.39-8.1-.39a101.21,101.21,0,1,0,0,202.42h54L185.35,353H101.24a71.09,71.09,0,1,1,0-142.19,69.61,69.61,0,0,1,9.43.73l26.86,3.55L139,188A102.8,102.8,0,0,1,241.69,90.89c48.82,0,80.08,39.61,92,73.53l7.67,21.79,22.35-5.84c3.47-.91,7.2-2.12,11.1-3.4,4.43-1.45,13.67-4.48,16.8-4.48a90.26,90.26,0,0,1,0,180.52h-65l30.1,30.12h34.88a120.38,120.38,0,0,0,0-240.75Z" fill="#ffffff"/>
        <polygon points="330.45 378.1 310.39 358.02 298.16 345.8 361.39 282.56 319.22 240.41 255.98 303.65 192.75 240.41 150.59 282.56 213.82 345.82 201.63 358.02 181.55 378.1 150.59 409.06 192.75 451.23 255.98 387.98 319.24 451.23 361.41 409.06 330.45 378.1" fill="#ffff"/>
    </g>
</svg>