<?xml version="1.0" encoding="utf-8"?>
<!-- Generator: Adobe Illustrator 22.0.1, SVG Export Plug-In . SVG Version: 6.00 Build 0)  -->
<svg version="1.1" id="Layer_1" xmlns="http://www.w3.org/2000/svg" xmlns:xlink="http://www.w3.org/1999/xlink" x="0px" y="0px"
	 viewBox="11 11 30 30" style="enable-background:new 0 0 50 50;" xml:space="preserve">
<style type="text/css">
	.st0_48{fill:none;stroke:#000000;stroke-width:2;stroke-miterlimit:10;}
</style>
<path class="st0_48 svg-stroke" d="M35,39V26.8c0-1.8,0.7-3.5,2-4.8l0,0"/>
<polyline class="st0_48 svg-stroke" points="32,13 39,13 39,20 "/>
<path class="st0_48 svg-stroke" d="M25,39V27.1c0-4.5,1.8-8.9,5-12.1l0,0"/>
<path class="st0_48 svg-stroke" d="M15,39V26.8c0-1.8-0.7-3.5-2-4.8l0,0"/>
<path class="st0_48 svg-stroke" d="M25,39V27.1c0-4.5-1.8-8.9-5-12.1l0,0"/>
<path class="st0_48 svg-stroke" d="M39,13l-5.5,5.5c-2.2,2.2-3.5,5.2-3.5,8.4V39"/>
</svg>
