<?xml version="1.0" encoding="utf-8"?>
<!-- Generator: Adobe Illustrator 22.0.1, SVG Export Plug-In . SVG Version: 6.00 Build 0)  -->
<svg version="1.1" id="Layer_1" xmlns="http://www.w3.org/2000/svg" xmlns:xlink="http://www.w3.org/1999/xlink" x="0px" y="0px"
	 viewBox="2 2 45 45" style="enable-background:new 0 0 50 50;" xml:space="preserve">
<style type="text/css">
	.st0_49{fill:none;stroke:#000000;stroke-width:2;stroke-miterlimit:10;}
</style>
<g>
	<path class="st0_49" d="M31,17.8v-3.7l-3-0.2c-0.2-1-0.6-2-1.2-2.8l2-2.3l-2.6-2.6l-2.3,2C23,7.6,22.1,7.2,21.1,7l-0.2-3h-3.7l-0.2,3
		c-1,0.2-2,0.6-2.8,1.2l-2.3-2L9.2,8.8l2,2.3c-0.5,0.9-0.9,1.8-1.2,2.8l-3,0.2v3.7l3,0.2c0.2,1,0.6,2,1.2,2.8l-2,2.3l2.6,2.6l2.3-2
		c0.9,0.5,1.8,0.9,2.8,1.2l0.2,3h3.7l0.2-3c1-0.2,2-0.6,2.8-1.2l2.3,2l2.6-2.6l-2-2.3c0.5-0.9,0.9-1.8,1.2-2.8L31,17.8z"/>
	<circle class="st0_49" cx="19" cy="16" r="2.8"/>
</g>
<g>
	<circle class="st0_49" cx="33" cy="36" r="2"/>
	<path class="st0_49" d="M40,36c0-0.5,0-0.9-0.1-1.4l1.9-1.4l-2-3.5l-2.2,1c-0.7-0.6-1.5-1.1-2.3-1.3L35,27h-4l-0.3,2.4
		c-0.9,0.3-1.7,0.8-2.3,1.3l-2.2-1l-2,3.5l1.9,1.4C26,35.1,26,35.5,26,36s0,0.9,0.1,1.4l-1.9,1.4l2,3.5l2.2-1
		c0.7,0.6,1.5,1.1,2.3,1.3L31,45h4l0.3-2.4c0.9-0.3,1.7-0.8,2.3-1.3l2.2,1l2-3.5l-1.9-1.4C40,36.9,40,36.5,40,36z"/>
</g>
</svg>
