<?xml version="1.0" encoding="utf-8"?>
<!-- Generator: Adobe Illustrator 22.0.1, SVG Export Plug-In . SVG Version: 6.00 Build 0)  -->
<svg version="1.1" id="Layer_1" xmlns="http://www.w3.org/2000/svg" xmlns:xlink="http://www.w3.org/1999/xlink" x="0px" y="0px"
	 viewBox="8 8 34 34" style="enable-background:new 0 0 50 50;" xml:space="preserve">
<style type="text/css">
	.st0{fill:none;stroke:#000000;stroke-width:2;stroke-miterlimit:10;}
</style>
<path class="st0" d="M25,43v-5c3.6,0,6.8-1.5,9.2-3.8L36,36l3,3"/>
<polyline class="st0" points="34,39 39,39 39,34 "/>
<path class="st0" d="M20.2,37.1c-1.6-0.7-3.1-1.6-4.3-2.9s-2.2-2.7-2.9-4.3C12.3,28.3,12,26.7,12,25c0-1.9,0.4-3.7,1.1-5.3
	c0.7-1.5,1.6-2.8,2.7-3.9c1.3-1.3,2.8-2.3,4.5-2.9c1.5-0.6,3-0.9,4.7-0.9c1.8,0,3.5,0.4,5.1,1c1.5,0.7,2.9,1.6,4.1,2.8
	s2.1,2.6,2.8,4.1c0.7,1.6,1,3.3,1,5.1c0,1.6-0.3,3.2-0.9,4.7"/>
</svg>
