<?xml version="1.0" encoding="utf-8"?>
<!-- Generator: Adobe Illustrator 22.0.1, SVG Export Plug-In . SVG Version: 6.00 Build 0)  -->
<svg version="1.1" id="Layer_1" xmlns="http://www.w3.org/2000/svg" xmlns:xlink="http://www.w3.org/1999/xlink" x="0px" y="0px"
	 viewBox="9 9 32 32" style="enable-background:new 0 0 50 50;" xml:space="preserve">
<style type="text/css">
	.st0{fill:none;stroke:#000000;stroke-width:2;stroke-miterlimit:10;}
</style>
<g>
	<path d="M13,25.8v7h-1.7V17.4h5.2c0.8,0,1.5,0.1,2.1,0.4c0.6,0.2,1,0.6,1.4,1s0.6,0.8,0.8,1.4s0.2,1,0.2,1.5c0,0.5-0.1,0.9-0.2,1.4
		c-0.1,0.5-0.3,0.9-0.6,1.3c-0.3,0.4-0.7,0.7-1.1,1c-0.5,0.3-1,0.5-1.7,0.5l4.1,7h-2l-4.1-7H13z M19.3,21.6c0-0.7-0.2-1.4-0.7-1.8
		c-0.5-0.5-1.1-0.7-2-0.7H13v5.1h3.5c0.9,0,1.6-0.2,2-0.7C19.1,22.9,19.3,22.3,19.3,21.6z"/>
</g>
<line class="st0" x1="25" y1="33" x2="25" y2="28"/>
<line class="st0" x1="29" y1="33" x2="29" y2="25"/>
<line class="st0" x1="33" y1="33" x2="33" y2="22"/>
<line class="st0" x1="37" y1="33" x2="37" y2="19"/>
</svg>
