<?xml version="1.0" encoding="utf-8"?>
<!-- Generator: Adobe Illustrator 22.0.1, SVG Export Plug-In . SVG Version: 6.00 Build 0)  -->
<svg version="1.1" id="Layer_1" xmlns="http://www.w3.org/2000/svg" xmlns:xlink="http://www.w3.org/1999/xlink" x="0px" y="0px"
	 viewBox="3 3 44 44" style="enable-background:new 0 0 50 50;" xml:space="preserve">
<style type="text/css">
	.st0_70{fill:none;stroke:#000000;stroke-width:2;stroke-miterlimit:10;}
</style>
<polyline class="st0_70 svg-stroke" points="39,16 39,11 34,11 "/>
<path class="st0_70 svg-stroke" d="M20.2,37.1c-1.6-0.7-3.1-1.6-4.3-2.9s-2.2-2.7-2.9-4.3C12.3,28.3,12,26.7,12,25c0-1.9,0.4-3.7,1.1-5.3
	c0.7-1.5,1.6-2.8,2.7-3.9c1.3-1.3,2.8-2.3,4.5-2.9c1.5-0.6,3-0.9,4.7-0.9c1.8,0,3.5,0.4,5.1,1"/>
<path class="st0_70 svg-stroke" d="M39,11l-3,3l-1.8,1.8c1.2,1.2,2.1,2.6,2.8,4.1c0.7,1.6,1,3.3,1,5.1c0,1.6-0.3,3.2-0.9,4.7
	c-0.7,1.7-1.7,3.3-2.9,4.5c-1.1,1.1-2.5,2-3.9,2.7C28.7,37.6,26.9,38,25,38v5"/>
</svg>
