<?xml version="1.0" encoding="utf-8"?>
<!-- Generator: Adobe Illustrator 22.0.1, SVG Export Plug-In . SVG Version: 6.00 Build 0)  -->
<svg version="1.1" id="Layer_1" xmlns="http://www.w3.org/2000/svg" xmlns:xlink="http://www.w3.org/1999/xlink" x="0px" y="0px"
	 viewBox="0 0 50 50" style="enable-background:new 0 0 50 50;" xml:space="preserve">
<style type="text/css">
	.st0{fill:none;stroke:#000000;stroke-width:2;stroke-miterlimit:10;}
</style>
<path class="st0" d="M29.8,37.1c1.6-0.7,3.1-1.6,4.3-2.9s2.2-2.7,2.9-4.3c0.6-1.5,0.9-3.1,0.9-4.8c0-1.9-0.4-3.7-1.1-5.3
	c-0.7-1.5-1.6-2.8-2.7-3.9c-1.3-1.3-2.8-2.3-4.5-2.9"/>
<polyline class="st0" points="29,9 25,5 21,9 "/>
<path class="st0" d="M25,5v7c-1.8,0-3.5,0.4-5.1,1c-1.5,0.7-2.9,1.6-4.1,2.8s-2.1,2.6-2.8,4.1c-0.7,1.6-1,3.3-1,5.1
	c0,1.6,0.3,3.2,0.9,4.7c0.7,1.7,1.7,3.3,2.9,4.5c1.1,1.1,2.5,2,3.9,2.7c1.6,0.7,3.4,1.1,5.3,1.1v5"/>
</svg>
