<?xml version="1.0" encoding="utf-8"?>
<!-- Generator: Adobe Illustrator 22.0.1, SVG Export Plug-In . SVG Version: 6.00 Build 0)  -->
<svg version="1.1" id="Layer_1" xmlns="http://www.w3.org/2000/svg" xmlns:xlink="http://www.w3.org/1999/xlink" x="0px" y="0px"
	 viewBox="5 5 40 40" style="enable-background:new 0 0 50 50;" xml:space="preserve">
<style type="text/css">
	.st0_73{fill:none;stroke:#000000;stroke-width:2;stroke-miterlimit:10;}
	.dark-theme .svg_bg{fill:none;stroke:#000000;stroke-width:3;stroke-miterlimit:10;}
	.light-theme .svg_bg{fill:none;stroke:#ffffff;stroke-width:3;stroke-miterlimit:10;}
</style>
<path class="svg_bg" d="M10,32.1c-1.9-1.8-3-4.3-3-7.1v0c0-5.5,4.5-10,10-10h16"/>
<path class="svg_bg" d="M40,17.9c1.9,1.8,3,4.3,3,7.1v0c0,5.5-4.5,10-10,10H17"/>
<polyline class="svg_bg" points="28,9.3 33.7,15 28,20.7 "/>
<polyline class="svg_bg" points="22,40.7 16.3,35 22,29.3 "/>
<path class="st0_73" d="M10,32.1c-1.9-1.8-3-4.3-3-7.1v0c0-5.5,4.5-10,10-10h16"/>
<path class="st0_73" d="M40,17.9c1.9,1.8,3,4.3,3,7.1v0c0,5.5-4.5,10-10,10H17"/>
<polyline class="st0_73" points="28,9.3 33.7,15 28,20.7 "/>
<polyline class="st0_73" points="22,40.7 16.3,35 22,29.3 "/>
</svg>
