<?xml version="1.0" encoding="utf-8"?>
<!-- Generator: Adobe Illustrator 22.0.1, SVG Export Plug-In . SVG Version: 6.00 Build 0)  -->
<svg version="1.1" id="Layer_1" xmlns="http://www.w3.org/2000/svg" xmlns:xlink="http://www.w3.org/1999/xlink" x="0px" y="0px"
	 viewBox="3 3 44 44" style="enable-background:new 0 0 50 50;" xml:space="preserve">
<style type="text/css">
	.st0_7E{fill:none;stroke:#000000;stroke-width:2;stroke-miterlimit:10;}
</style>
<polygon class="st0_7E" points="9,20 9,34 14,34 19,38 37,38 37,34 41,34 41,38 45,38 45,21 41,21 41,26 37,26 37,17 26,17 26,13 
	20,13 20,17 15,17 13,20 "/>
<line class="st0_7E" x1="8" y1="27" x2="5" y2="27"/>
<line class="st0_7E" x1="5" y1="33" x2="5" y2="21"/>
<line class="st0_7E" x1="29" y1="13" x2="17" y2="13"/>
<polyline class="st0_7E" points="18,27 22.5,31.5 31.5,22.5 "/>
</svg>
