<?xml version="1.0" encoding="utf-8"?>
<!-- Generator: Adobe Illustrator 22.0.1, SVG Export Plug-In . SVG Version: 6.00 Build 0)  -->
<svg version="1.1" id="Layer_1" xmlns="http://www.w3.org/2000/svg" xmlns:xlink="http://www.w3.org/1999/xlink" x="0px" y="0px"
	 viewBox="5 5 40 40" style="enable-background:new 0 0 50 50;" xml:space="preserve">
<style type="text/css">
	.st0_8E{fill:none;stroke:#000000;stroke-width:2;stroke-miterlimit:10;}
</style>
<path class="st0_8E" d="M35.6,11.4c-5.9-5.9-15.4-5.9-21.2,0c-5.9,5.9-5.9,15.4,0,21.2L25,43.2l10.6-10.6
	C41.5,26.7,41.5,17.3,35.6,11.4z"/>
<path class="st0_8E" d="M31,22c0-0.4,0-0.7-0.1-1.1l2-1.2l-2-3.5l-2,1.2c-0.6-0.5-1.2-0.8-1.9-1.1V14h-4v2.3c-0.7,0.2-1.3,0.6-1.9,1.1
	l-2-1.2l-2,3.5l2,1.2C19,21.3,19,21.6,19,22s0,0.7,0.1,1.1l-2,1.2l2,3.5l2-1.2c0.6,0.5,1.2,0.8,1.9,1.1V30h4v-2.3
	c0.7-0.2,1.3-0.6,1.9-1.1l2,1.2l2-3.5l-2-1.2C31,22.7,31,22.4,31,22z"/>
<circle class="st0_8E" cx="25" cy="22" r="2"/>
</svg>
