<?xml version="1.0" encoding="utf-8"?>
<!-- Generator: Adobe Illustrator 22.0.1, SVG Export Plug-In . SVG Version: 6.00 Build 0)  -->
<svg version="1.1" id="Layer_1" xmlns="http://www.w3.org/2000/svg" xmlns:xlink="http://www.w3.org/1999/xlink" x="0px" y="0px"
	 viewBox="2 2 46 46" style="enable-background:new 0 0 50 50;" xml:space="preserve">
<style type="text/css">
	.st0_8F{fill:none;stroke:#000000;stroke-width:2;stroke-miterlimit:10;}
</style>
<line class="st0_8F svg-stroke" x1="25" y1="46" x2="25" y2="40.3"/>
<line class="st0_8F svg-stroke" x1="18" y1="46" x2="32" y2="46"/>
<path class="st0_8F svg-stroke" d="M34,26v5c0,5-4,9-9,9l0,0c-5,0-9-4-9-9v-5"/>
<path class="st0_8F svg-stroke" d="M25,36L25,36c-2.7,0-5-2.2-5-5V21c0-2.7,2.2-5,5-5l0,0c2.7,0,5,2.2,5,5v10C30,33.7,27.7,36,25,36z"/>
<polyline class="st0_8F svg-stroke" points="21,8 24,11 30,5 "/>
</svg>
