<?xml version="1.0" encoding="utf-8"?>
<!-- Generator: Adobe Illustrator 22.0.1, SVG Export Plug-In . SVG Version: 6.00 Build 0)  -->
<svg version="1.1" id="Layer_1" xmlns="http://www.w3.org/2000/svg" xmlns:xlink="http://www.w3.org/1999/xlink" x="0px" y="0px"
	 viewBox="12 12 26 26" style="enable-background:new 0 0 50 50;" xml:space="preserve">
<style type="text/css">
	.st1_C9{fill:currentColor;stroke:#000000;stroke-width:1;stroke-miterlimit:10;}
</style>
<g>
	<path class="st1_C9 svg-stroke" d="M24.4,23.2c0.5,0,1-0.1,1.4-0.3c0.4-0.2,0.8-0.5,1.1-0.8c0.3-0.3,0.6-0.7,0.8-1.2c0.2-0.4,0.3-0.9,0.3-1.4
		c0-0.5-0.1-1-0.3-1.4s-0.4-0.8-0.8-1.2c-0.3-0.3-0.7-0.6-1.1-0.8c-0.4-0.2-0.9-0.3-1.4-0.3c-0.5,0-1,0.1-1.4,0.3
		c-0.4,0.2-0.8,0.5-1.1,0.8c-0.3,0.3-0.6,0.7-0.8,1.2c-0.2,0.4-0.3,0.9-0.3,1.4h-2.2c0-0.8,0.2-1.6,0.5-2.3s0.7-1.3,1.2-1.9
		c0.5-0.5,1.1-0.9,1.8-1.2s1.5-0.5,2.3-0.5c0.8,0,1.6,0.2,2.3,0.5c0.7,0.3,1.3,0.7,1.9,1.2c0.5,0.5,0.9,1.1,1.2,1.9s0.5,1.5,0.5,2.3
		c0,1-0.2,1.9-0.7,2.7c-0.4,0.8-1,1.5-1.8,2c0.8,0.6,1.4,1.3,1.9,2.1c0.5,0.9,0.7,1.8,0.7,2.8c0,0.8-0.2,1.6-0.5,2.4
		c-0.3,0.7-0.8,1.4-1.3,1.9c-0.6,0.5-1.2,1-1.9,1.3c-0.7,0.3-1.5,0.5-2.4,0.5c-0.8,0-1.6-0.2-2.4-0.5c-0.7-0.3-1.4-0.8-1.9-1.3
		c-0.6-0.6-1-1.2-1.3-1.9c-0.3-0.7-0.5-1.5-0.5-2.4h2.2c0,0.5,0.1,1,0.3,1.5c0.2,0.5,0.5,0.9,0.8,1.2c0.3,0.4,0.7,0.6,1.2,0.9
		c0.5,0.2,1,0.3,1.5,0.3s1-0.1,1.5-0.3c0.5-0.2,0.9-0.5,1.2-0.9c0.3-0.4,0.6-0.8,0.8-1.2c0.2-0.5,0.3-1,0.3-1.5c0-0.5-0.1-1-0.3-1.4
		c-0.2-0.5-0.5-0.9-0.8-1.2c-0.3-0.3-0.7-0.6-1.2-0.9c-0.4-0.2-0.9-0.3-1.4-0.4h-0.1V23.2z"/>
</g>
</svg>
